<?xml version="1.0" encoding="UTF-8"?>
<svg id="Layer_2" data-name="Layer 2" xmlns="http://www.w3.org/2000/svg" viewBox="0 0 44.2 11.89">
  <defs>
    <style>
      .cls-1 {
        opacity: .23;
      }

      .cls-2 {
        fill: none;
      }

      .cls-3 {
        opacity: .44;
      }

      .cls-4 {
        fill: #010201;
      }

      .cls-5 {
        opacity: .59;
      }

      .cls-6 {
        opacity: .8;
      }
    </style>
  </defs>
  <g id="Layer_2-2" data-name="Layer 2">
    <g id="uuid-49e02fad-0684-4168-a680-0b229e096ac3" data-name="Layer 2-2">
      <g id="Layer_1-2" data-name="Layer 1-2">
        <g>
          <g>
            <path class="cls-4" d="M19.61,5.86c-.09.28-.17.6-.26.94-.06.22-.12.47-.18.72-.07-.25-.12-.49-.18-.72-.09-.34-.18-.66-.27-.94l-.75-2.26h-1.07l1.63,4.68h1.25l1.62-4.68h-1.06l-.73,2.26h-.01Z"/>
            <polygon class="cls-4" points="22.93 6.31 24.94 6.31 24.94 5.52 22.93 5.52 22.93 4.4 25.1 4.4 25.1 3.61 21.97 3.61 21.97 8.28 25.11 8.28 25.11 7.49 22.93 7.49 22.93 6.31"/>
            <path class="cls-4" d="M28.85,7.02c-.06.1-.14.18-.23.26s-.19.12-.31.16c-.11.03-.24.06-.37.06-.24,0-.45-.06-.64-.18s-.33-.3-.43-.52-.15-.51-.15-.85.06-.61.15-.84.25-.41.43-.53.4-.18.64-.18c.14,0,.26.02.37.06.11.03.22.09.31.16.09.07.16.16.23.25s.1.22.12.34h.97c-.03-.26-.11-.5-.23-.7s-.26-.37-.44-.52-.39-.25-.61-.33-.48-.11-.74-.11c-.41,0-.78.09-1.11.28-.33.18-.59.47-.78.82-.19.36-.28.79-.28,1.31s.09.94.28,1.29.45.64.77.82.7.28,1.11.28c.3,0,.57-.05.79-.14s.44-.22.61-.37.31-.34.41-.53.17-.41.19-.62h-.97c-.02.12-.07.24-.12.34h0l.02.02Z"/>
            <polygon class="cls-4" points="30.45 4.4 31.88 4.4 31.88 8.28 32.85 8.28 32.85 4.4 34.28 4.4 34.28 3.61 30.45 3.61 30.45 4.4"/>
            <path class="cls-4" d="M37.9,3.82c-.33-.19-.7-.28-1.11-.28s-.78.09-1.11.28c-.33.18-.59.47-.78.82-.19.35-.28.79-.28,1.31s.09.94.28,1.29.45.64.78.82.7.28,1.11.28.78-.09,1.11-.28.59-.47.78-.82.28-.79.28-1.29-.09-.94-.28-1.31-.45-.64-.78-.82ZM37.85,6.8c-.1.23-.24.41-.42.52s-.4.18-.64.18-.45-.06-.64-.18-.33-.3-.42-.52-.15-.51-.15-.84.05-.61.15-.85.24-.41.42-.52.4-.18.64-.18.45.06.64.18c.18.12.32.3.42.52s.15.52.15.85-.05.61-.15.85h0Z"/>
            <path class="cls-4" d="M42.29,8.28h1.06l-1-1.83s.05,0,.06-.02c.25-.12.44-.28.58-.51s.2-.49.2-.79-.07-.58-.19-.81-.32-.41-.57-.53-.56-.19-.91-.19h-1.83v4.68h.95v-1.67h.75l.9,1.67h0ZM40.65,4.39h.69c.19,0,.36.02.49.09.12.07.22.14.28.25s.09.24.09.4-.03.28-.09.39-.16.18-.28.24-.28.08-.49.08h-.69v-1.44h0Z"/>
          </g>
          <polygon class="cls-4" points="15.89 5.94 14.26 5.09 14.26 5.6 10.49 5.6 10.49 6.28 14.26 6.28 14.26 6.8 15.89 5.94"/>
          <g>
            <path class="cls-4" d="M8.29,6.32v-.24h.25v-.5h.25v-1.24h-.25v-.25h-.25v-.25h-.24v-.24h-2.71v4.68h.74v-1.73h.99v.25h.25v.49h.24v.49h.25v.25h.25v.25h.74v-.5h-.25v-.49h-.25v-.49h-.24v-.5h.24ZM7.8,5.57h-.25v.25h-1.24v-.25h-.25v-1.23h1.48v.24h.25v.99h.01Z"/>
            <g class="cls-3">
              <polygon class="cls-4" points="8.54 4.09 8.54 3.84 8.29 3.84 8.29 4.09 8.54 4.09"/>
            </g>
            <g class="cls-5">
              <polygon class="cls-4" points="8.79 8.04 8.79 8.28 9.03 8.28 9.03 8.04 8.79 8.04"/>
            </g>
            <g class="cls-1">
              <rect class="cls-4" x="8.54" y="7.54" width=".25" height=".24"/>
            </g>
            <g class="cls-6">
              <rect class="cls-4" x="6.07" y="6.56" width=".25" height="1.73"/>
              <rect class="cls-4" x="7.8" y="8.04" width=".25" height=".25"/>
              <polygon class="cls-4" points="8.79 5.57 8.54 5.57 8.54 5.82 8.79 5.82 8.79 5.57"/>
              <rect class="cls-4" x="5.58" y="4.84" width="1.23" height=".25" transform="translate(1.22 11.14) rotate(-89.87)"/>
            </g>
          </g>
          <g>
            <path class="cls-4" d="M3.95,4.58v-.24h-.25v-.25h-.24v-.25h-.25v-.24h-1.96v.24h-.5v.25h-.24v.25h-.25v.74H0v1.73h.25v.49h.25v.49h.49v.25h.49v.25h1.73v.25h.74v-.5h-.25v-.49h.25v-.5h.25v-2.46h-.25.01ZM3.45,6.81h-.25v.24h-.25v-.24h-.74v.49h.25v.25h-.99v-.25h-.24v-.25h-.25v-.74h-.25v-.74h.25v-.74h.25v-.25h.24v-.24h1.48v.24h.25v.5h.25v1.73h0Z"/>
            <g class="cls-3">
              <rect class="cls-4" x="3.45" y="3.84" width=".24" height=".25"/>
              <polygon class="cls-4" points="3.95 4.34 3.95 4.09 3.7 4.09 3.7 4.34 3.95 4.34"/>
              <rect class="cls-4" x=".99" y="3.61" width=".24" height=".25" transform="translate(-2.62 4.85) rotate(-89.93)"/>
              <polygon class="cls-4" points="4.19 6.56 4.44 6.56 4.44 6.32 4.19 6.31 4.19 6.56"/>
              <polygon class="cls-4" points="0 6.81 0 7.05 .25 7.05 .25 6.81 0 6.81"/>
              <rect class="cls-4" x="3.95" y="8.28" width=".25" height=".24"/>
              <rect class="cls-4" x="2.96" y="4.58" width=".25" height=".25"/>
              <polygon class="cls-4" points="3.2 5.33 3.45 5.33 3.45 5.08 3.2 5.08 3.2 5.33"/>
              <rect class="cls-4" x="1.98" y="6.81" width=".24" height=".24"/>
              <rect class="cls-4" x="1.24" y="7.05" width=".24" height=".25"/>
            </g>
            <g class="cls-5">
              <rect class="cls-4" x=".74" y="7.79" width=".25" height=".25" transform="translate(-7.05 8.77) rotate(-89.9)"/>
              <rect class="cls-4" x="0" y="4.83" width=".25" height=".25" transform="translate(-4.83 5.08) rotate(-89.9)"/>
              <rect class="cls-4" x="1.23" y="8.04" width=".25" height=".24" transform="translate(-6.8 9.5) rotate(-89.88)"/>
              <polygon class="cls-4" points="4.19 5.33 4.19 5.57 4.44 5.57 4.44 5.33 4.19 5.33"/>
            </g>
            <g class="cls-1">
              <polygon class="cls-4" points=".25 7.31 .25 7.54 .5 7.54 .5 7.3 .25 7.31"/>
              <polygon class="cls-4" points="2.21 3.36 1.98 3.36 1.98 3.61 2.21 3.61 2.21 3.36"/>
            </g>
            <g class="cls-6">
              <polygon class="cls-4" points="4.19 5.57 4.19 6.31 4.44 6.32 4.44 5.57 4.19 5.57"/>
              <polygon class="cls-4" points="3.95 7.05 3.95 7.3 4.19 7.3 4.19 7.05 3.95 7.05"/>
              <polygon class="cls-4" points="1.98 6.81 2.23 6.81 2.71 6.81 2.71 6.56 1.98 6.56 1.98 6.81"/>
              <rect class="cls-4" x=".74" y="5.57" width=".25" height=".74"/>
              <polygon class="cls-4" points="3.2 6.56 3.2 6.81 3.45 6.81 3.45 6.56 3.2 6.56"/>
              <rect class="cls-4" x="1.48" y="7.3" width=".25" height=".25"/>
              <rect class="cls-4" x=".99" y="6.81" width=".25" height=".24"/>
              <rect class="cls-4" x="2.72" y="4.35" width=".24" height=".24" transform="translate(-1.65 7.28) rotate(-89.62)"/>
            </g>
          </g>
        </g>
      </g>
    </g>
    <rect class="cls-2" width="44.2" height="11.89"/>
  </g>
</svg>